<?xml version="1.0" standalone="no"?><!DOCTYPE svg PUBLIC "-//W3C//DTD SVG 1.1//EN" "http://www.w3.org/Graphics/SVG/1.1/DTD/svg11.dtd"><svg height="1560" legacy-metrics="false" node-id="1" sillyvg="true" template-height="1560" template-width="2340" version="1.1" viewBox="0 0 2340 1560" width="2340" xmlns="http://www.w3.org/2000/svg" xmlns:xlink="http://www.w3.org/1999/xlink"><defs node-id="69"></defs><path d="M 676.36 1287.79 C 678.73 1269.34 689.36 1204.38 742.66 1165.89 C 810.38 1116.97 921.09 1129.53 1001.43 1207.59 C 1004.57 1190.89 1014.27 1152.59 1047.43 1123.12 C 1096.87 1079.12 1172.51 1077.81 1227.07 1108.12 C 1287.36 1141.64 1320.47 1212.99 1308.34 1285.62 Z" fill="none" node-id="72" stroke="#1a1a1a" stroke-linecap="round" stroke-width="3" target-height="200.37476" target-width="634.4291" target-x="676.36" target-y="1087.4153"></path><path d="M 1104.79 1285.71 C 1151.20 1152.05 1278.13 1065.19 1412.79 1071.84 C 1530.05 1077.64 1635.37 1173.45 1682.26 1285.71 C 1489.74 1292.36 1297.27 1279.05 1104.79 1285.71 Z" fill="#ffa076" fill-rule="nonzero" node-id="74" stroke="none" target-height="216.12915" target-width="577.47" target-x="1104.79" target-y="1071.4951"></path><path d="M 946.11 306.39 C 946.13 279.72 928.31 256.34 902.59 249.29 C 876.88 242.24 849.62 253.27 836.04 276.21 C 822.46 299.16 825.91 328.36 844.46 347.51 L 844.37 347.51 C 844.37 347.51 861.18 368.60 861.66 384.09 C 861.94 393.09 861.89 395.86 861.81 396.58 L 912.06 396.58 C 911.97 395.86 911.92 393.11 912.20 384.09 C 912.68 368.60 929.50 347.51 929.50 347.51 L 929.50 347.51 C 940.17 336.48 946.13 321.74 946.11 306.39 Z" fill="#ffffff" fill-rule="nonzero" node-id="76" stroke="#1a1a1a" stroke-linecap="round" stroke-width="2" target-height="149.39404" target-width="118.28052" target-x="827.82947" target-y="247.18594"></path><path d="M 861.81 396.56 L 861.66 396.56 C 861.66 396.56 861.74 397.08 861.81 396.56 Z" fill="#ffffff" fill-rule="nonzero" node-id="78" stroke="#1a1a1a" stroke-linecap="round" stroke-width="2" target-height="0.19500732" target-width="0.15002441" target-x="861.66" target-y="396.56"></path><path d="M 912.20 396.56 L 912.06 396.56 C 912.12 397.08 912.20 396.56 912.20 396.56 Z" fill="#ffffff" fill-rule="nonzero" node-id="80" stroke="#1a1a1a" stroke-linecap="round" stroke-width="2" target-height="0.19500732" target-width="0.14001465" target-x="912.06" target-y="396.56"></path><path d="M 874.47 374.07 L 874.47 325.60 C 874.47 325.60 864.91 321.66 866.69 332.06 C 868.47 342.46 890.77 334.13 889.27 326.35 C 887.77 318.57 876.27 333.28 888.15 337.69 C 900.03 342.10 911.48 331.31 906.05 324.94 C 900.62 318.57 897.71 331.31 897.61 343.50 L 897.61 375.00" fill="none" node-id="82" stroke="#1a1a1a" stroke-linecap="round" stroke-width="2" target-height="51.766327" target-width="40.961914" target-x="866.4823" target-y="323.23367"></path><path d="M 849.35 378.32 L 924.56 378.32 C 927.60 378.32 930.06 380.78 930.06 383.81 L 930.06 383.81 C 930.06 386.85 927.60 389.31 924.56 389.31 L 849.35 389.31 C 846.31 389.31 843.85 386.85 843.85 383.81 L 843.85 383.81 C 843.85 380.78 846.31 378.32 849.35 378.32 Z" fill="#ffffff" fill-rule="nonzero" node-id="84" stroke="#1a1a1a" stroke-linecap="round" stroke-width="2" target-height="10.98999" target-width="86.21002" target-x="843.85" target-y="378.32"></path><path d="M 849.35 391.81 L 924.56 391.81 C 927.60 391.81 930.06 394.27 930.06 397.31 L 930.06 397.31 C 930.06 400.34 927.60 402.80 924.56 402.80 L 849.35 402.80 C 846.31 402.80 843.85 400.34 843.85 397.31 L 843.85 397.31 C 843.85 394.27 846.31 391.81 849.35 391.81 Z" fill="#ffffff" fill-rule="nonzero" node-id="86" stroke="#1a1a1a" stroke-linecap="round" stroke-width="2" target-height="10.98999" target-width="86.21002" target-x="843.85" target-y="391.81"></path><path d="M 849.35 405.31 L 924.56 405.31 C 927.60 405.31 930.06 407.77 930.06 410.81 L 930.06 410.81 C 930.06 413.84 927.60 416.30 924.56 416.30 L 849.35 416.30 C 846.31 416.30 843.85 413.84 843.85 410.81 L 843.85 410.81 C 843.85 407.77 846.31 405.31 849.35 405.31 Z" fill="#ffffff" fill-rule="nonzero" node-id="88" stroke="#1a1a1a" stroke-linecap="round" stroke-width="2" target-height="10.98999" target-width="86.21002" target-x="843.85" target-y="405.31"></path><path d="M 862.34 416.30 L 911.56 416.30 L 911.56 416.30 L 911.56 416.30 C 911.56 427.35 902.61 436.30 891.56 436.30 L 882.31 436.30 C 871.26 436.30 862.31 427.35 862.31 416.30 L 862.31 416.30 L 862.31 416.30 Z" fill="#ffffff" fill-rule="nonzero" node-id="90" stroke="#1a1a1a" stroke-linecap="round" stroke-width="2" target-height="20" target-width="49.25" target-x="862.31" target-y="416.3"></path><path d="M 603.75 1389.24 L 1736.25 1389.24 C 1754.04 1389.24 1768.46 1366.50 1768.46 1338.44 L 1768.46 1338.44 C 1768.46 1310.38 1754.04 1287.64 1736.25 1287.64 L 603.75 1287.64 C 585.96 1287.64 571.54 1310.38 571.54 1338.44 L 571.54 1338.44 C 571.54 1366.50 586.00 1389.24 603.75 1389.24 Z" fill="none" node-id="92" stroke="#1a1a1a" stroke-linecap="round" stroke-width="3" target-height="101.599976" target-width="1196.9199" target-x="571.54" target-y="1287.64"></path><path d="M 1222.00 1302.68 L 1222.00 1301.95 L 1221.80 1302.03 C 1192.28 1192.60 1182.11 1065.76 1193.90 966.19 L 1077.24 973.00 C 1089.57 1093.67 1128.33 1210.14 1190.78 1314.12 L 1180.31 1325.57 C 1180.31 1325.57 1184.95 1339.11 1185.55 1340.06 C 1186.15 1341.01 1201.11 1336.61 1202.42 1335.06 C 1203.73 1333.51 1221.42 1318.31 1221.42 1317.83 C 1221.42 1317.35 1221.86 1306.00 1221.98 1302.76 L 1221.98 1302.76 Z" fill="#ffffff" fill-rule="nonzero" node-id="94" stroke="#1a1a1a" stroke-linecap="round" stroke-width="2" target-height="373.99774" target-width="144.76001" target-x="1077.24" target-y="966.19"></path><path d="M 1311.10 952.81 C 1343.92 1036.42 1400.53 1108.56 1473.94 1160.31 L 1491.94 1162.21 L 1500.94 1180.05 C 1500.94 1180.05 1501.48 1209.28 1500.94 1209.99 C 1500.40 1210.70 1491.14 1220.33 1491.14 1220.33 L 1475.98 1212.76 C 1477.15 1203.04 1475.98 1198.94 1473.98 1190.70 C 1416.26 1184.61 1360.73 1161.46 1315.21 1127.20 C 1261.62 1086.87 1221.55 1031.78 1195.88 971.83 Z" fill="#ffffff" fill-rule="nonzero" node-id="96" stroke="#1a1a1a" stroke-linecap="round" stroke-width="2" target-height="267.51996" target-width="305.29993" target-x="1195.88" target-y="952.81"></path><path d="M 1497.50 1165.53 L 1491.90 1162.21 C 1494.20 1173.53 1501.11 1185.40 1497.82 1197.66 C 1496.53 1200.18 1495.55 1203.66 1493.95 1205.22 C 1489.34 1209.22 1482.08 1213.43 1475.95 1212.76 C 1477.79 1234.76 1478.24 1262.52 1478.24 1262.52 C 1478.24 1262.52 1504.24 1250.37 1507.84 1231.24 C 1511.44 1212.11 1504.32 1186.68 1504.32 1186.68 L 1537.32 1199.62 L 1536.23 1196.23 Z" fill="#25383f" fill-rule="nonzero" node-id="98" stroke="#1a1a1a" stroke-linecap="round" stroke-width="1" target-height="100.31006" target-width="61.369995" target-x="1475.95" target-y="1162.21"></path><path d="M 1129.24 242.17 C 1155.54 229.73 1191.24 245.17 1203.97 271.92 C 1208.49 281.42 1210.40 291.92 1213.17 302.05 C 1229.06 360.35 1276.17 409.13 1333.87 427.05 C 1357.87 434.52 1386.87 439.50 1398.08 462.05 C 1405.08 476.05 1402.51 493.05 1397.33 507.80 C 1385.79 540.80 1361.43 568.88 1330.92 585.99 C 1265.58 622.63 1068.08 442.36 1068.08 442.36 C 1056.45 436.23 1052.78 420.65 1055.80 407.86 C 1058.82 395.07 1066.86 384.16 1073.80 373.01 C 1080.74 361.86 1086.95 349.22 1085.55 336.15 C 1084.25 324.09 1076.70 313.63 1073.67 301.89 C 1069.75 286.72 1073.69 270.59 1084.18 258.94 C 1094.67 247.29 1110.30 241.68 1125.80 244.00 Z" fill="#25383f" fill-rule="nonzero" node-id="100" stroke="none" target-height="353.0475" target-width="347.53442" target-x="1054.8093" target-y="237.85565"></path><path d="M 1130.00 243.47 C 1148.10 235.02 1169.86 240.20 1185.34 251.78 C 1193.72 258.00 1200.23 266.40 1204.16 276.07 C 1208.88 287.86 1210.74 300.59 1214.84 312.61 C 1221.95 333.22 1232.67 352.39 1246.52 369.22 C 1260.36 386.14 1277.04 400.51 1295.81 411.70 C 1305.20 417.27 1315.08 421.98 1325.32 425.75 C 1335.26 429.40 1345.57 431.91 1355.67 435.06 C 1365.32 438.06 1375.03 441.59 1383.35 447.46 C 1392.22 453.52 1398.29 462.89 1400.19 473.46 C 1402.39 486.08 1399.09 499.16 1394.61 510.92 C 1390.46 521.73 1384.96 531.98 1378.26 541.42 C 1371.62 550.81 1363.90 559.38 1355.26 566.97 C 1347.30 574.14 1338.48 580.30 1329.00 585.31 C 1320.90 589.44 1311.43 589.91 1302.53 589.00 C 1291.06 587.83 1279.84 584.31 1269.14 580.15 C 1256.09 574.95 1243.42 568.85 1231.21 561.90 C 1217.83 554.43 1204.83 546.29 1192.09 537.79 C 1179.09 529.13 1166.44 520.08 1153.95 510.79 C 1142.51 502.26 1131.24 493.52 1120.13 484.55 C 1110.91 477.13 1101.79 469.59 1092.76 461.92 C 1086.76 456.84 1080.83 451.70 1074.98 446.51 C 1073.45 445.18 1071.93 443.82 1070.40 442.43 C 1068.73 440.93 1066.75 439.96 1065.05 438.48 C 1057.41 431.81 1055.19 420.48 1056.77 410.78 C 1058.83 398.19 1066.50 387.34 1073.22 376.78 C 1080.11 365.98 1086.91 354.08 1087.22 340.93 C 1087.57 328.00 1080.28 317.16 1076.22 305.34 C 1072.38 294.09 1073.01 281.79 1078.00 271.00 C 1082.97 260.31 1091.95 252.02 1103.00 247.92 C 1108.17 245.97 1113.64 244.96 1119.16 244.92 C 1120.48 244.92 1121.80 244.98 1123.16 245.10 C 1124.28 245.19 1125.52 245.61 1126.58 245.18 C 1127.75 244.64 1128.88 244.04 1129.99 243.39 C 1131.70 242.49 1130.18 239.90 1128.47 240.80 L 1125.03 242.61 L 1126.19 242.46 C 1114.69 240.84 1102.99 243.32 1093.13 249.46 C 1083.40 255.59 1076.21 265.04 1072.90 276.06 C 1071.19 281.66 1070.50 287.52 1070.84 293.36 C 1071.32 299.42 1072.81 305.36 1075.23 310.94 C 1077.64 316.83 1080.55 322.53 1082.43 328.62 C 1084.40 334.84 1084.72 341.47 1083.37 347.86 C 1078.07 372.70 1053.05 390.41 1053.28 416.86 C 1053.37 426.69 1057.15 437.12 1065.72 442.63 C 1066.79 443.27 1067.79 444.01 1068.72 444.84 C 1073.08 448.75 1077.48 452.61 1081.91 456.44 C 1089.81 463.29 1097.81 470.04 1105.91 476.69 C 1116.48 485.40 1127.19 493.95 1138.04 502.33 C 1150.23 511.73 1162.62 520.87 1175.19 529.74 C 1188.14 538.83 1201.34 547.58 1214.89 555.74 C 1227.52 563.53 1240.58 570.61 1254.00 576.94 C 1265.59 582.28 1277.59 587.02 1290.00 589.94 C 1299.89 592.22 1310.36 593.43 1320.41 591.40 C 1325.37 590.31 1330.10 588.39 1334.41 585.71 C 1344.39 579.81 1353.66 572.79 1362.03 564.77 C 1378.91 548.73 1391.67 528.86 1399.22 506.83 C 1403.22 494.91 1405.53 481.66 1402.31 469.28 C 1399.63 458.95 1392.97 450.51 1384.31 444.52 C 1366.93 432.58 1345.05 429.92 1325.64 422.72 C 1304.84 414.92 1285.67 403.31 1269.12 388.49 C 1252.53 373.74 1238.73 356.12 1228.37 336.49 C 1223.17 326.61 1218.93 316.25 1215.73 305.55 C 1212.03 293.17 1210.19 280.00 1203.92 268.55 C 1194.37 251.08 1175.55 239.08 1155.92 236.72 C 1146.56 235.53 1137.06 236.98 1128.48 240.91 C 1126.74 241.69 1128.26 244.28 1130.00 243.47 Z" fill="#1a1a1a" fill-rule="nonzero" node-id="102" stroke="none" target-height="356.0965" target-width="350.54883" target-x="1053.28" target-y="236.34381"></path><path d="M 946.11 541.52 C 946.11 541.52 1002.00 655.07 1065.87 657.36 C 1102.87 658.68 1126.55 600.42 1126.55 600.42 L 1094.83 424.70 C 1001.69 473.93 1078.94 576.57 1047.21 580.13 C 1034.38 581.57 976.76 519.77 976.76 519.77 C 967.21 507.41 938.52 526.30 946.11 541.52 Z" fill="#ff6d24" fill-rule="nonzero" node-id="104" stroke="#1a1a1a" stroke-linecap="round" stroke-width="2" target-height="232.65997" target-width="181.71228" target-x="944.83777" target-y="424.7"></path><path d="M 948.85 542.61 C 948.85 542.61 952.51 554.61 970.33 545.61 C 988.15 536.61 976.57 520.48 976.57 520.48 C 976.57 520.48 967.12 513.48 954.57 524.04 C 942.02 534.60 948.85 542.61 948.85 542.61 Z" fill="#1a1a1a" fill-rule="nonzero" node-id="106" stroke="none" target-height="30.756653" target-width="33.21869" target-x="947.00616" target-y="518.1917"></path><path d="M 1068.34 692.62 C 1068.34 692.62 1028.06 817.01 1064.44 981.71 C 1187.84 964.93 1261.90 1012.01 1335.33 947.85 C 1283.33 810.23 1391.69 761.05 1269.79 687.35 C 1203.69 674.15 1068.34 692.62 1068.34 692.62 Z" fill="#ffffff" fill-rule="nonzero" node-id="108" stroke="#1a1a1a" stroke-linecap="round" stroke-width="2" target-height="300.23376" target-width="286.0558" target-x="1049.2742" target-y="682.6047"></path><path d="M 1064.57 706.32 C 1064.57 706.32 1086.00 714.18 1144.57 713.05 C 1206.35 711.87 1275.86 694.12 1275.38 691.53 C 1274.69 687.77 1266.84 687.58 1258.63 687.45 C 1214.14 686.73 1069.37 690.00 1068.77 690.00 C 1068.17 690.00 1064.57 706.32 1064.57 706.32 Z" fill="#1a1a1a" fill-rule="nonzero" node-id="110" stroke="none" target-height="25.794006" target-width="210.81006" target-x="1064.57" target-y="687.34784"></path><path d="M 1079.10 485.43 C 1064.10 499.05 1059.66 622.85 1054.79 701.65 C 1054.79 701.65 1199.64 718.65 1274.73 687.77 C 1262.86 649.28 1262.83 449.48 1248.58 439.50 C 1234.33 429.52 1196.81 415.77 1196.81 415.77 L 1122.81 416.33 C 1122.81 416.33 1104.72 419.41 1091.17 426.72" fill="#ff6d24" fill-rule="nonzero" node-id="112" stroke="#1a1a1a" stroke-linecap="round" stroke-width="2" target-height="290.5187" target-width="219.93994" target-x="1054.79" target-y="415.77"></path><path d="M 1198.82 416.73 C 1180.41 434.66 1144.82 440.09 1113.82 421.45 C 1125.62 412.95 1136.69 392.33 1135.43 377.45 C 1134.17 362.57 1132.62 359.60 1132.62 359.60 C 1124.91 362.24 1116.95 363.85 1114.29 363.60 C 1109.10 363.13 1085.03 340.00 1094.94 304.13 C 1092.82 298.64 1094.63 291.13 1094.20 283.87 C 1096.61 282.70 1111.20 282.87 1116.77 271.93 C 1121.96 287.88 1132.16 301.72 1145.84 311.42 C 1152.77 316.27 1160.45 319.94 1168.57 322.30 C 1178.75 327.92 1177.76 326.73 1181.64 328.67 C 1181.15 332.32 1177.47 360.14 1177.54 365.01 L 1178.01 399.01 C 1178.01 399.01 1179.00 407.52 1198.82 416.73 Z" fill="#ffffff" fill-rule="nonzero" node-id="114" stroke="#1a1a1a" stroke-linecap="round" stroke-width="2" target-height="161.14038" target-width="106.247925" target-x="1092.572" target-y="271.93"></path><path d="M 1310.38 744.33 C 1310.38 744.33 1316.14 780.68 1315.58 794.59 C 1315.02 808.50 1305.04 829.14 1296.13 827.72 C 1287.22 826.30 1284.72 803.14 1287.21 788.88 C 1281.87 795.65 1275.10 792.80 1274.74 788.88 C 1274.38 784.96 1283.06 750.39 1283.74 741.48 C 1299.45 740.41 1310.38 744.33 1310.38 744.33 Z" fill="#ffffff" fill-rule="nonzero" node-id="116" stroke="#1a1a1a" stroke-linecap="round" stroke-width="2" target-height="86.413574" target-width="40.859253" target-x="1274.74" target-y="741.3064"></path><path d="M 1243.00 436.29 C 1243.00 436.29 1291.47 457.85 1311.91 547.92 C 1334.54 647.66 1313.91 748.32 1313.91 748.32 L 1279.00 745.75 C 1279.00 745.75 1283.28 673.37 1263.57 622.15 C 1249.27 585.65 1234.09 561.53 1234.09 561.53" fill="#ff6d24" fill-rule="nonzero" node-id="118" stroke="#1a1a1a" stroke-linecap="round" stroke-width="2" target-height="312.03" target-width="88.39209" target-x="1234.09" target-y="436.29"></path><path d="M 1074.00 548.27 C 1078.28 564.66 1126.51 566.44 1131.06 541.52" fill="#ff6d24" fill-rule="nonzero" node-id="120" stroke="#1a1a1a" stroke-linecap="round" stroke-width="2" target-height="18.879883" target-width="57.06006" target-x="1074" target-y="541.52"></path><path d="M 1152.84 538.00 C 1152.84 538.00 1160.65 573.58 1206.63 558.56" fill="#ff6d24" fill-rule="nonzero" node-id="122" stroke="#1a1a1a" stroke-linecap="round" stroke-width="2" target-height="24.214294" target-width="53.79004" target-x="1152.84" target-y="538"></path><path d="M 976.05 525.83 C 976.05 525.83 949.00 478.07 944.32 483.77 C 939.64 489.47 941.47 497.00 941.47 497.00 C 941.47 497.00 906.90 468.13 887.65 476.68 C 868.40 485.23 884.44 520.88 900.13 525.87 C 915.82 530.86 954.00 536.17 958.58 543.30 C 970.51 539.94 978.79 528.62 976.05 525.83 Z" fill="#ffffff" fill-rule="nonzero" node-id="124" stroke="#1a1a1a" stroke-linecap="round" stroke-width="2" target-height="68.18265" target-width="97.71344" target-x="878.84326" target-y="475.11734"></path><path d="M 1202.79 1329.46 C 1195.70 1335.64 1187.04 1332.38 1180.31 1325.60 C 1175.16 1338.26 1132.49 1375.03 1132.49 1375.03 C 1132.49 1375.03 1185.42 1379.42 1217.90 1341.16 L 1225.18 1361.85 L 1233.58 1361.23 C 1233.58 1361.23 1229.29 1325.15 1222.86 1301.43 C 1216.46 1310.37 1211.68 1321.64 1202.79 1329.46 Z" fill="#25383f" fill-rule="nonzero" node-id="126" stroke="#1a1a1a" stroke-linecap="round" stroke-width="1" target-height="73.747925" target-width="101.089966" target-x="1132.49" target-y="1301.43"></path><path d="M 1143.17 355.75 L 1132.45 358.57 L 1133.90 362.70 L 1143.17 355.75 Z" fill="#1a1a1a" fill-rule="nonzero" node-id="128" stroke="none" target-height="6.950012" target-width="10.720093" target-x="1132.45" target-y="355.75"></path><path d="M 1598.20 747.77 L 1573.97 753.47 L 1545.04 694.32 L 1576.30 690.76 L 1598.20 747.77 Z" fill="#ffffff" fill-rule="nonzero" node-id="130" stroke="#1a1a1a" stroke-linecap="round" stroke-width="2" target-height="62.70996" target-width="53.159912" target-x="1545.04" target-y="690.76"></path><path d="M 1660.00 681.24 L 1576.35 690.76 L 1545.00 694.32 L 1507.63 698.57 L 1493.37 666.85 L 1608.80 570.56 C 1593.80 587.08 1615.03 630.38 1615.03 630.38 C 1615.03 630.38 1638.70 680.32 1660.00 681.24 Z" fill="#ffffff" fill-rule="nonzero" node-id="132" stroke="#1a1a1a" stroke-linecap="round" stroke-width="2" target-height="128.01001" target-width="166.63" target-x="1493.37" target-y="570.56"></path><path d="M 1617.81 565.27 C 1615.89 565.78 1614.05 566.57 1612.36 567.62 L 1608.84 570.56 C 1599.95 580.37 1603.84 599.62 1608.42 613.64 C 1610.29 619.35 1612.51 624.94 1615.07 630.38 C 1615.07 630.38 1638.70 680.32 1659.95 681.24 L 1664.14 680.76 C 1697.05 672.68 1648.34 557.00 1617.81 565.27 Z M 1655.81 630.85 C 1642.08 636.38 1630.50 610.36 1643.15 605.55 C 1656.34 600.52 1666.91 626.37 1655.77 630.85 Z" fill="#ffffff" fill-rule="nonzero" node-id="134" stroke="#1a1a1a" stroke-linecap="round" stroke-width="2" target-height="116.358826" target-width="71.57947" target-x="1603.5039" target-y="564.88116"></path><path d="M 1612.36 567.62 L 1608.84 570.56 C 1609.87 569.42 1611.05 568.43 1612.36 567.62 Z" fill="none" node-id="136" stroke="#1a1a1a" stroke-linecap="round" stroke-width="3" target-height="2.9400024" target-width="3.5200195" target-x="1608.84" target-y="567.62"></path><path d="M 1664.14 680.76 C 1662.78 681.15 1661.36 681.31 1659.95 681.24 Z" fill="none" node-id="138" stroke="#1a1a1a" stroke-linecap="round" stroke-width="3" target-height="0.47998047" target-width="4.1900635" target-x="1659.95" target-y="680.76"></path><path d="M 1655.77 630.85 L 1631.17 654.02" fill="#ffffff" fill-rule="nonzero" node-id="140" stroke="#1a1a1a" stroke-linecap="round" stroke-width="2" target-height="23.170044" target-width="24.599976" target-x="1631.17" target-y="630.85"></path><path d="M 1643.11 605.55 L 1608.42 613.64" fill="#ffffff" fill-rule="nonzero" node-id="142" stroke="#1a1a1a" stroke-linecap="round" stroke-width="2" target-height="8.090027" target-width="34.68994" target-x="1608.42" target-y="605.55"></path><path d="M 1655.77 630.85 C 1642.04 636.38 1630.46 610.36 1643.11 605.55 C 1656.34 600.52 1666.91 626.37 1655.77 630.85 Z" fill="#ffffff" fill-rule="nonzero" node-id="144" stroke="#1a1a1a" stroke-linecap="round" stroke-width="2" target-height="26.66449" target-width="22.732544" target-x="1637.704" target-y="604.9394"></path><path d="M 1655.77 555.05 C 1657.13 552.67 1690.40 523.21 1690.40 523.21 L 1697.05 532.21 Z" fill="none" node-id="146" stroke="#1a1a1a" stroke-linecap="round" stroke-width="3" target-height="31.839966" target-width="41.28003" target-x="1655.77" target-y="523.21"></path><path d="M 1689.45 594.50 L 1723.19 582.61 L 1726.99 597.82 L 1689.45 594.50 Z" fill="none" node-id="148" stroke="#1a1a1a" stroke-linecap="round" stroke-width="3" target-height="15.210022" target-width="37.54004" target-x="1689.45" target-y="582.61"></path><path d="M 1703.23 654.02 L 1734.60 660.08 L 1726.99 675.76 L 1703.23 654.02 Z" fill="none" node-id="150" stroke="#1a1a1a" stroke-linecap="round" stroke-width="3" target-height="21.73999" target-width="31.369995" target-x="1703.23" target-y="654.02"></path><path d="M 1631.17 534.14 L 1639.30 499.44 L 1628.14 499.44 L 1631.17 534.14 Z" fill="none" node-id="152" stroke="#1a1a1a" stroke-linecap="round" stroke-width="3" target-height="34.700012" target-width="11.160034" target-x="1628.14" target-y="499.44"></path><path d="M 604.71 907.57 L 742.58 872.69 L 771.17 985.68 L 633.30 1020.56 Z" fill="#ffffff" fill-rule="nonzero" node-id="154" stroke="#1a1a1a" stroke-linecap="round" stroke-width="2" target-height="147.87653" target-width="166.46509" target-x="604.708" target-y="872.6866"></path><path d="M 771.12 985.75 L 803.54 955.98 L 774.96 842.98 L 742.54 872.75 L 771.12 985.75 Z" fill="#ffffff" fill-rule="nonzero" node-id="156" stroke="#1a1a1a" stroke-linecap="round" stroke-width="2" target-height="142.77002" target-width="61" target-x="742.54" target-y="842.98"></path><path d="M 604.66 907.63 L 658.39 872.47 L 774.96 842.98 L 742.54 872.75 L 604.66 907.63 Z" fill="#ffffff" fill-rule="nonzero" node-id="158" stroke="#1a1a1a" stroke-linecap="round" stroke-width="2" target-height="64.650024" target-width="170.30005" target-x="604.66" target-y="842.98"></path><path d="M 619.27 915.66 L 664.88 904.11 L 669.51 922.43 L 623.90 933.97 Z" fill="#ffffff" fill-rule="nonzero" node-id="160" stroke="#1a1a1a" stroke-linecap="round" stroke-width="2" target-height="29.854553" target-width="50.246216" target-x="619.2677" target-y="904.1146"></path><path d="M 1649.11 894.41 L 1714.32 948.61 L 1669.90 1002.06 L 1604.68 947.86 Z" fill="#ffffff" fill-rule="nonzero" node-id="162" stroke="#1a1a1a" stroke-linecap="round" stroke-width="2" target-height="107.65161" target-width="109.63916" target-x="1604.6847" target-y="894.4113"></path><path d="M 1669.76 1002.12 L 1695.49 1007.29 L 1739.92 953.85 L 1714.19 948.67 L 1669.76 1002.12 Z" fill="#ffffff" fill-rule="nonzero" node-id="164" stroke="#1a1a1a" stroke-linecap="round" stroke-width="2" target-height="58.619995" target-width="70.160034" target-x="1669.76" target-y="948.67"></path><path d="M 1648.97 894.47 L 1684.79 908.02 L 1739.92 953.85 L 1714.19 948.67 L 1648.97 894.47 Z" fill="#ffffff" fill-rule="nonzero" node-id="166" stroke="#1a1a1a" stroke-linecap="round" stroke-width="2" target-height="59.380005" target-width="90.95007" target-x="1648.97" target-y="894.47"></path><path d="M 1650.31 904.26 L 1671.89 922.19 L 1664.69 930.85 L 1643.12 912.92 Z" fill="#ffffff" fill-rule="nonzero" node-id="168" stroke="#1a1a1a" stroke-linecap="round" stroke-width="2" target-height="26.588623" target-width="28.769287" target-x="1643.1174" target-y="904.25635"></path><path d="M 971.49 1128.86 C 971.49 1166.66 940.85 1197.30 903.05 1197.30 C 865.25 1197.30 834.61 1166.66 834.61 1128.86 C 834.61 1091.06 865.25 1060.42 903.05 1060.42 C 940.85 1060.42 971.49 1091.06 971.49 1128.86 Z" fill="#ffffff" fill-rule="nonzero" node-id="170" stroke="#1a1a1a" stroke-linecap="round" stroke-width="2" target-height="136.88" target-width="136.88" target-x="834.61" target-y="1060.42"></path><path d="M 961.80 1128.86 C 961.80 1161.31 935.50 1187.61 903.05 1187.61 C 870.60 1187.61 844.30 1161.31 844.30 1128.86 C 844.30 1096.41 870.60 1070.11 903.05 1070.11 C 935.50 1070.11 961.80 1096.41 961.80 1128.86 Z" fill="#ffffff" fill-rule="nonzero" node-id="172" stroke="#1a1a1a" stroke-linecap="round" stroke-width="2" target-height="117.5" target-width="117.5" target-x="844.3" target-y="1070.11"></path><path d="M 916.00 1145.81 C 916.05 1143.11 914.96 1140.51 913.00 1138.65 C 911.00 1136.71 907.67 1134.95 903.00 1133.38 C 896.44 1131.38 891.66 1128.77 888.66 1125.55 C 885.61 1122.21 883.99 1117.80 884.15 1113.28 C 883.97 1108.72 885.55 1104.27 888.56 1100.85 C 891.50 1097.62 895.54 1095.69 900.69 1095.08 L 900.69 1085.00 L 907.58 1085.00 L 907.58 1095.17 C 912.32 1095.64 916.67 1097.98 919.66 1101.68 C 922.54 1105.32 923.98 1110.29 923.98 1116.60 L 915.48 1116.60 C 915.48 1112.25 914.45 1108.79 912.38 1106.22 C 910.37 1103.68 907.26 1102.25 904.02 1102.37 C 900.35 1102.37 897.55 1103.32 895.61 1105.22 C 893.67 1107.12 892.70 1109.76 892.70 1113.16 C 892.57 1116.00 893.69 1118.75 895.77 1120.68 C 897.82 1122.55 901.19 1124.24 905.89 1125.77 C 909.77 1126.91 913.48 1128.59 916.89 1130.77 C 919.33 1132.39 921.32 1134.59 922.71 1137.17 C 924.01 1139.83 924.65 1142.76 924.58 1145.72 C 924.58 1150.93 923.02 1155.12 919.89 1158.29 C 916.76 1161.46 912.38 1163.34 906.75 1163.93 L 906.75 1172.75 L 899.91 1172.75 L 899.91 1163.93 C 894.18 1163.40 889.69 1161.36 886.44 1157.80 C 883.19 1154.24 881.57 1149.41 881.56 1143.32 L 890.11 1143.32 C 890.11 1147.60 891.23 1150.90 893.48 1153.21 C 895.73 1155.52 898.92 1156.68 903.05 1156.67 C 907.05 1156.67 910.22 1155.70 912.57 1153.76 C 914.88 1151.78 916.15 1148.85 916.00 1145.81 Z" fill="#ffffff" fill-rule="nonzero" node-id="174" stroke="#1a1a1a" stroke-linecap="round" stroke-width="3" target-height="87.75" target-width="43.02002" target-x="881.56" target-y="1085"></path><path d="M 739.72 746.54 L 705.72 687.29 C 705.23 686.45 705.09 685.45 705.34 684.51 C 705.59 683.57 706.21 682.77 707.06 682.29 L 820.27 617.29 C 821.11 616.80 822.11 616.66 823.05 616.92 C 823.99 617.17 824.79 617.79 825.27 618.63 L 849.90 661.51 C 850.39 662.35 850.53 663.35 850.27 664.29 C 850.02 665.23 849.40 666.03 848.56 666.51 L 748.73 723.84 C 747.62 724.48 746.93 725.65 746.91 726.93 L 746.57 744.82 C 746.57 746.49 745.44 747.95 743.82 748.35 C 742.20 748.76 740.51 748.01 739.72 746.54 Z" fill="#ffffff" fill-rule="nonzero" node-id="176" stroke="#1a1a1a" stroke-linecap="round" stroke-width="2" target-height="131.62415" target-width="145.11383" target-x="705.2515" target-y="616.82465"></path><path d="M 732.02 682.59 L 815.43 635.34 L 818.28 639.85 L 734.40 687.85 L 732.02 682.59 Z" fill="#ffffff" fill-rule="nonzero" node-id="178" stroke="#1a1a1a" stroke-linecap="round" stroke-width="2" target-height="52.50995" target-width="86.26001" target-x="732.02" target-y="635.34"></path><path d="M 740.75 697.92 L 824.16 650.66 L 827.01 655.18 L 743.13 703.18 L 740.75 697.92 Z" fill="#ffffff" fill-rule="nonzero" node-id="180" stroke="#1a1a1a" stroke-linecap="round" stroke-width="2" target-height="52.52002" target-width="86.26001" target-x="740.75" target-y="650.66"></path><path d="M 1465.46 891.06 L 1440.46 820.92 C 1439.72 818.86 1440.16 817.25 1441.46 817.32 L 1524.67 821.98 C 1525.95 822.05 1527.58 823.78 1528.32 825.84 L 1546.42 876.60 C 1547.16 878.66 1546.72 880.28 1545.42 880.21 L 1472.00 876.10 C 1471.19 876.05 1470.68 876.70 1470.66 877.80 L 1470.41 893.22 C 1470.39 896.40 1466.81 894.84 1465.46 891.06 Z" fill="#ffffff" fill-rule="nonzero" node-id="182" stroke="#1a1a1a" stroke-linecap="round" stroke-width="2" target-height="77.59326" target-width="106.65222" target-x="1440.1139" target-y="817.32"></path><path d="M 810.87 255.39 L 774.81 233.13" fill="none" node-id="184" stroke="#1a1a1a" stroke-linecap="round" stroke-width="3" target-height="22.259995" target-width="36.059998" target-x="774.81" target-y="233.13"></path><path d="M 806.84 318.37 L 768.23 335.85" fill="none" node-id="186" stroke="#1a1a1a" stroke-linecap="round" stroke-width="3" target-height="17.480011" target-width="38.610046" target-x="768.23" target-y="318.37"></path><path d="M 960.30 255.39 L 996.36 233.13" fill="none" node-id="188" stroke="#1a1a1a" stroke-linecap="round" stroke-width="3" target-height="22.259995" target-width="36.059998" target-x="960.3" target-y="233.13"></path><path d="M 964.34 318.37 L 1002.94 335.85" fill="none" node-id="190" stroke="#1a1a1a" stroke-linecap="round" stroke-width="3" target-height="17.480011" target-width="38.599976" target-x="964.34" target-y="318.37"></path><path d="M 886.95 208.78 L 886.95 170.76" fill="none" node-id="192" stroke="#1a1a1a" stroke-linecap="round" stroke-width="3" target-height="38.020004" target-width="0" target-x="886.95" target-y="170.76"></path><path d="M 711.71 1096.31 C 711.71 1121.83 691.02 1142.52 665.50 1142.52 C 639.98 1142.52 619.29 1121.83 619.29 1096.31 C 619.29 1070.79 639.98 1050.10 665.50 1050.10 C 691.02 1050.10 711.71 1070.79 711.71 1096.31 Z" fill="#ffffff" fill-rule="nonzero" node-id="194" stroke="#1a1a1a" stroke-linecap="round" stroke-width="2" target-height="92.420044" target-width="92.420044" target-x="619.29" target-y="1050.1"></path></svg>